<mxfile host="Electron" modified="2023-05-22T14:50:56.633Z" agent="Mozilla/5.0 (Windows NT 10.0; Win64; x64) AppleWebKit/537.36 (KHTML, like Gecko) draw.io/21.2.8 Chrome/112.0.5615.165 Electron/24.2.0 Safari/537.36" etag="OpOg32kjDgP7nN7ED2yC" version="21.2.8" type="device">
  <diagram name="Page-1" id="RvwhJbUcbx0ByS6J4P_o">
    <mxGraphModel dx="1036" dy="605" grid="1" gridSize="10" guides="1" tooltips="1" connect="1" arrows="1" fold="1" page="1" pageScale="1" pageWidth="850" pageHeight="1100" math="0" shadow="0">
      <root>
        <mxCell id="0" />
        <mxCell id="1" parent="0" />
        <mxCell id="wo-LZC5Uq6gbLJCoan5z-6" value="" style="edgeStyle=orthogonalEdgeStyle;rounded=0;orthogonalLoop=1;jettySize=auto;html=1;" parent="1" source="wo-LZC5Uq6gbLJCoan5z-1" target="wo-LZC5Uq6gbLJCoan5z-5" edge="1">
          <mxGeometry relative="1" as="geometry" />
        </mxCell>
        <mxCell id="wo-LZC5Uq6gbLJCoan5z-1" value="" style="ellipse;whiteSpace=wrap;html=1;aspect=fixed;" parent="1" vertex="1">
          <mxGeometry x="160" y="20" width="80" height="80" as="geometry" />
        </mxCell>
        <mxCell id="wo-LZC5Uq6gbLJCoan5z-7" value="" style="edgeStyle=orthogonalEdgeStyle;rounded=0;orthogonalLoop=1;jettySize=auto;html=1;" parent="1" source="wo-LZC5Uq6gbLJCoan5z-3" target="wo-LZC5Uq6gbLJCoan5z-1" edge="1">
          <mxGeometry relative="1" as="geometry" />
        </mxCell>
        <mxCell id="wo-LZC5Uq6gbLJCoan5z-3" value="&lt;font face=&quot;Times New Roman&quot; style=&quot;font-size: 24px;&quot;&gt;&lt;i&gt;x&lt;/i&gt;&lt;sub&gt;1&lt;/sub&gt;&lt;/font&gt;" style="text;html=1;strokeColor=none;fillColor=none;align=center;verticalAlign=middle;whiteSpace=wrap;rounded=0;" parent="1" vertex="1">
          <mxGeometry x="70" y="45" width="30" height="30" as="geometry" />
        </mxCell>
        <mxCell id="wo-LZC5Uq6gbLJCoan5z-4" value="" style="endArrow=none;html=1;rounded=0;edgeStyle=orthogonalEdgeStyle;curved=1;" parent="1" edge="1">
          <mxGeometry width="50" height="50" relative="1" as="geometry">
            <mxPoint x="215" y="75" as="sourcePoint" />
            <mxPoint x="185" y="75" as="targetPoint" />
            <Array as="points">
              <mxPoint x="205" y="75" />
              <mxPoint x="205" y="45" />
              <mxPoint x="195" y="45" />
              <mxPoint x="195" y="75" />
            </Array>
          </mxGeometry>
        </mxCell>
        <mxCell id="wo-LZC5Uq6gbLJCoan5z-5" value="&lt;font face=&quot;Times New Roman&quot; style=&quot;font-size: 24px;&quot;&gt;&lt;i&gt;p&lt;/i&gt;(&lt;i&gt;x&lt;/i&gt;&lt;sub&gt;1&lt;/sub&gt;)&lt;/font&gt;" style="text;html=1;strokeColor=none;fillColor=none;align=center;verticalAlign=middle;whiteSpace=wrap;rounded=0;" parent="1" vertex="1">
          <mxGeometry x="300" y="45" width="60" height="30" as="geometry" />
        </mxCell>
      </root>
    </mxGraphModel>
  </diagram>
</mxfile>
